<?xml version="1.0" encoding="UTF-8" standalone="no"?>
<!DOCTYPE svg PUBLIC "-//W3C//DTD SVG 1.1//EN"
 "http://www.w3.org/Graphics/SVG/1.1/DTD/svg11.dtd">
<!-- Generated by graphviz version 2.47.3 (20210619.1520)
 -->
<!-- Title: dependencies Pages: 1 -->
<svg width="2665pt" height="247pt"
 viewBox="0.00 0.00 2665.00 246.80" xmlns="http://www.w3.org/2000/svg" xmlns:xlink="http://www.w3.org/1999/xlink">
<g id="graph0" class="graph" transform="scale(1 1) rotate(0) translate(4 242.8)">
<title>dependencies</title>
<polygon fill="white" stroke="transparent" points="-4,4 -4,-242.8 2661,-242.8 2661,4 -4,4"/>
<text text-anchor="middle" x="1328.5" y="-8.2" font-family="sans-serif" font-size="14.00">dependencies</text>
<g id="clust1" class="cluster">
<title>cluster_AppModule</title>
<polygon fill="none" stroke="black" stroke-dasharray="1,5" points="8,-32.8 8,-230.8 2649,-230.8 2649,-32.8 8,-32.8"/>
</g>
<g id="clust17" class="cluster">
<title>cluster_AppModule_imports</title>
<polygon fill="none" stroke="black" points="2497,-40.8 2497,-92.8 2641,-92.8 2641,-40.8 2497,-40.8"/>
</g>
<g id="clust19" class="cluster">
<title>cluster_AppModule_bootstrap</title>
<polygon fill="none" stroke="black" points="1211,-170.8 1211,-222.8 1335,-222.8 1335,-170.8 1211,-170.8"/>
</g>
<g id="clust2" class="cluster">
<title>cluster_AppModule_declarations</title>
<polygon fill="none" stroke="black" points="16,-40.8 16,-92.8 2489,-92.8 2489,-40.8 16,-40.8"/>
</g>
<!-- AboutSectionComponent -->
<g id="node1" class="node">
<title>AboutSectionComponent</title>
<polygon fill="#ffffb3" stroke="black" points="2481.32,-84.8 2322.68,-84.8 2322.68,-48.8 2481.32,-48.8 2481.32,-84.8"/>
<text text-anchor="middle" x="2402" y="-62.6" font-family="Times,serif" font-size="14.00">AboutSectionComponent</text>
</g>
<!-- AppModule -->
<g id="node15" class="node">
<title>AppModule</title>
<polygon fill="#8dd3c7" stroke="black" points="1314.66,-149.8 1311.66,-153.8 1290.66,-153.8 1287.66,-149.8 1231.34,-149.8 1231.34,-113.8 1314.66,-113.8 1314.66,-149.8"/>
<text text-anchor="middle" x="1273" y="-127.6" font-family="Times,serif" font-size="14.00">AppModule</text>
</g>
<!-- AboutSectionComponent&#45;&gt;AppModule -->
<g id="edge1" class="edge">
<title>AboutSectionComponent&#45;&gt;AppModule</title>
<path fill="none" stroke="black" d="M2402,-85.09C2402,-107.01 2402,-140.8 2402,-140.8 2402,-140.8 1324.86,-140.8 1324.86,-140.8"/>
<polygon fill="black" stroke="black" points="1324.86,-137.3 1314.86,-140.8 1324.86,-144.3 1324.86,-137.3"/>
</g>
<!-- AppComponent -->
<g id="node2" class="node">
<title>AppComponent</title>
<polygon fill="#ffffb3" stroke="black" points="2304.94,-84.8 2199.06,-84.8 2199.06,-48.8 2304.94,-48.8 2304.94,-84.8"/>
<text text-anchor="middle" x="2252" y="-62.6" font-family="Times,serif" font-size="14.00">AppComponent</text>
</g>
<!-- AppComponent&#45;&gt;AppModule -->
<g id="edge2" class="edge">
<title>AppComponent&#45;&gt;AppModule</title>
<path fill="none" stroke="black" d="M2252,-84.83C2252,-105.57 2252,-136.8 2252,-136.8 2252,-136.8 1324.75,-136.8 1324.75,-136.8"/>
<polygon fill="black" stroke="black" points="1324.75,-133.3 1314.75,-136.8 1324.75,-140.3 1324.75,-133.3"/>
</g>
<!-- ContactSectionComponent -->
<g id="node3" class="node">
<title>ContactSectionComponent</title>
<polygon fill="#ffffb3" stroke="black" points="2181.37,-84.8 2014.63,-84.8 2014.63,-48.8 2181.37,-48.8 2181.37,-84.8"/>
<text text-anchor="middle" x="2098" y="-62.6" font-family="Times,serif" font-size="14.00">ContactSectionComponent</text>
</g>
<!-- ContactSectionComponent&#45;&gt;AppModule -->
<g id="edge3" class="edge">
<title>ContactSectionComponent&#45;&gt;AppModule</title>
<path fill="none" stroke="black" d="M2098,-84.91C2098,-104.14 2098,-131.8 2098,-131.8 2098,-131.8 1324.76,-131.8 1324.76,-131.8"/>
<polygon fill="black" stroke="black" points="1324.76,-128.3 1314.76,-131.8 1324.76,-135.3 1324.76,-128.3"/>
</g>
<!-- DialogDataProtectionComponent -->
<g id="node4" class="node">
<title>DialogDataProtectionComponent</title>
<polygon fill="#ffffb3" stroke="black" points="1996.91,-84.8 1793.09,-84.8 1793.09,-48.8 1996.91,-48.8 1996.91,-84.8"/>
<text text-anchor="middle" x="1895" y="-62.6" font-family="Times,serif" font-size="14.00">DialogDataProtectionComponent</text>
</g>
<!-- DialogDataProtectionComponent&#45;&gt;AppModule -->
<g id="edge4" class="edge">
<title>DialogDataProtectionComponent&#45;&gt;AppModule</title>
<path fill="none" stroke="black" d="M1895,-85.1C1895,-103.07 1895,-127.8 1895,-127.8 1895,-127.8 1324.78,-127.8 1324.78,-127.8"/>
<polygon fill="black" stroke="black" points="1324.78,-124.3 1314.78,-127.8 1324.78,-131.3 1324.78,-124.3"/>
</g>
<!-- DialogLegalNoticeComponent -->
<g id="node5" class="node">
<title>DialogLegalNoticeComponent</title>
<polygon fill="#ffffb3" stroke="black" points="1775.12,-84.8 1586.88,-84.8 1586.88,-48.8 1775.12,-48.8 1775.12,-84.8"/>
<text text-anchor="middle" x="1681" y="-62.6" font-family="Times,serif" font-size="14.00">DialogLegalNoticeComponent</text>
</g>
<!-- DialogLegalNoticeComponent&#45;&gt;AppModule -->
<g id="edge5" class="edge">
<title>DialogLegalNoticeComponent&#45;&gt;AppModule</title>
<path fill="none" stroke="black" d="M1681,-84.83C1681,-101.2 1681,-122.8 1681,-122.8 1681,-122.8 1324.75,-122.8 1324.75,-122.8"/>
<polygon fill="black" stroke="black" points="1324.75,-119.3 1314.75,-122.8 1324.75,-126.3 1324.75,-119.3"/>
</g>
<!-- DialogSubmitReportComponent -->
<g id="node6" class="node">
<title>DialogSubmitReportComponent</title>
<polygon fill="#ffffb3" stroke="black" points="1568.99,-84.8 1371.01,-84.8 1371.01,-48.8 1568.99,-48.8 1568.99,-84.8"/>
<text text-anchor="middle" x="1470" y="-62.6" font-family="Times,serif" font-size="14.00">DialogSubmitReportComponent</text>
</g>
<!-- DialogSubmitReportComponent&#45;&gt;AppModule -->
<g id="edge6" class="edge">
<title>DialogSubmitReportComponent&#45;&gt;AppModule</title>
<path fill="none" stroke="black" d="M1470,-84.99C1470,-99.98 1470,-118.8 1470,-118.8 1470,-118.8 1324.78,-118.8 1324.78,-118.8"/>
<polygon fill="black" stroke="black" points="1324.78,-115.3 1314.78,-118.8 1324.78,-122.3 1324.78,-115.3"/>
</g>
<!-- FooterSectionComponent -->
<g id="node7" class="node">
<title>FooterSectionComponent</title>
<polygon fill="#ffffb3" stroke="black" points="1352.87,-84.8 1193.13,-84.8 1193.13,-48.8 1352.87,-48.8 1352.87,-84.8"/>
<text text-anchor="middle" x="1273" y="-62.6" font-family="Times,serif" font-size="14.00">FooterSectionComponent</text>
</g>
<!-- FooterSectionComponent&#45;&gt;AppModule -->
<g id="edge7" class="edge">
<title>FooterSectionComponent&#45;&gt;AppModule</title>
<path fill="none" stroke="black" d="M1273,-84.91C1273,-84.91 1273,-103.79 1273,-103.79"/>
<polygon fill="black" stroke="black" points="1269.5,-103.79 1273,-113.79 1276.5,-103.79 1269.5,-103.79"/>
</g>
<!-- HomeContactComponent -->
<g id="node8" class="node">
<title>HomeContactComponent</title>
<polygon fill="#ffffb3" stroke="black" points="1175.59,-84.8 1016.41,-84.8 1016.41,-48.8 1175.59,-48.8 1175.59,-84.8"/>
<text text-anchor="middle" x="1096" y="-62.6" font-family="Times,serif" font-size="14.00">HomeContactComponent</text>
</g>
<!-- HomeContactComponent&#45;&gt;AppModule -->
<g id="edge8" class="edge">
<title>HomeContactComponent&#45;&gt;AppModule</title>
<path fill="none" stroke="black" d="M1096,-84.99C1096,-99.98 1096,-118.8 1096,-118.8 1096,-118.8 1221.05,-118.8 1221.05,-118.8"/>
<polygon fill="black" stroke="black" points="1221.05,-122.3 1231.05,-118.8 1221.05,-115.3 1221.05,-122.3"/>
</g>
<!-- HomeImageComponent -->
<g id="node9" class="node">
<title>HomeImageComponent</title>
<polygon fill="#ffffb3" stroke="black" points="998.03,-84.8 847.97,-84.8 847.97,-48.8 998.03,-48.8 998.03,-84.8"/>
<text text-anchor="middle" x="923" y="-62.6" font-family="Times,serif" font-size="14.00">HomeImageComponent</text>
</g>
<!-- HomeImageComponent&#45;&gt;AppModule -->
<g id="edge9" class="edge">
<title>HomeImageComponent&#45;&gt;AppModule</title>
<path fill="none" stroke="black" d="M923,-84.83C923,-101.2 923,-122.8 923,-122.8 923,-122.8 1221.13,-122.8 1221.13,-122.8"/>
<polygon fill="black" stroke="black" points="1221.13,-126.3 1231.13,-122.8 1221.13,-119.3 1221.13,-126.3"/>
</g>
<!-- HomeSectionComponent -->
<g id="node10" class="node">
<title>HomeSectionComponent</title>
<polygon fill="#ffffb3" stroke="black" points="829.54,-84.8 672.46,-84.8 672.46,-48.8 829.54,-48.8 829.54,-84.8"/>
<text text-anchor="middle" x="751" y="-62.6" font-family="Times,serif" font-size="14.00">HomeSectionComponent</text>
</g>
<!-- HomeSectionComponent&#45;&gt;AppModule -->
<g id="edge10" class="edge">
<title>HomeSectionComponent&#45;&gt;AppModule</title>
<path fill="none" stroke="black" d="M751,-85.1C751,-103.07 751,-127.8 751,-127.8 751,-127.8 1221.16,-127.8 1221.16,-127.8"/>
<polygon fill="black" stroke="black" points="1221.16,-131.3 1231.16,-127.8 1221.16,-124.3 1221.16,-131.3"/>
</g>
<!-- HomeTextComponent -->
<g id="node11" class="node">
<title>HomeTextComponent</title>
<polygon fill="#ffffb3" stroke="black" points="654.7,-84.8 513.3,-84.8 513.3,-48.8 654.7,-48.8 654.7,-84.8"/>
<text text-anchor="middle" x="584" y="-62.6" font-family="Times,serif" font-size="14.00">HomeTextComponent</text>
</g>
<!-- HomeTextComponent&#45;&gt;AppModule -->
<g id="edge11" class="edge">
<title>HomeTextComponent&#45;&gt;AppModule</title>
<path fill="none" stroke="black" d="M584,-84.91C584,-104.14 584,-131.8 584,-131.8 584,-131.8 1221.19,-131.8 1221.19,-131.8"/>
<polygon fill="black" stroke="black" points="1221.19,-135.3 1231.19,-131.8 1221.19,-128.3 1221.19,-135.3"/>
</g>
<!-- NavBarComponent -->
<g id="node12" class="node">
<title>NavBarComponent</title>
<polygon fill="#ffffb3" stroke="black" points="495.37,-84.8 370.63,-84.8 370.63,-48.8 495.37,-48.8 495.37,-84.8"/>
<text text-anchor="middle" x="433" y="-62.6" font-family="Times,serif" font-size="14.00">NavBarComponent</text>
</g>
<!-- NavBarComponent&#45;&gt;AppModule -->
<g id="edge12" class="edge">
<title>NavBarComponent&#45;&gt;AppModule</title>
<path fill="none" stroke="black" d="M433,-84.83C433,-105.57 433,-136.8 433,-136.8 433,-136.8 1221.06,-136.8 1221.06,-136.8"/>
<polygon fill="black" stroke="black" points="1221.06,-140.3 1231.06,-136.8 1221.06,-133.3 1221.06,-140.3"/>
</g>
<!-- SkillsSectionComponent -->
<g id="node13" class="node">
<title>SkillsSectionComponent</title>
<polygon fill="#ffffb3" stroke="black" points="352.72,-84.8 197.28,-84.8 197.28,-48.8 352.72,-48.8 352.72,-84.8"/>
<text text-anchor="middle" x="275" y="-62.6" font-family="Times,serif" font-size="14.00">SkillsSectionComponent</text>
</g>
<!-- SkillsSectionComponent&#45;&gt;AppModule -->
<g id="edge13" class="edge">
<title>SkillsSectionComponent&#45;&gt;AppModule</title>
<path fill="none" stroke="black" d="M275,-85.09C275,-107.01 275,-140.8 275,-140.8 275,-140.8 1221.07,-140.8 1221.07,-140.8"/>
<polygon fill="black" stroke="black" points="1221.07,-144.3 1231.07,-140.8 1221.07,-137.3 1221.07,-144.3"/>
</g>
<!-- WorkSectionComponent -->
<g id="node14" class="node">
<title>WorkSectionComponent</title>
<polygon fill="#ffffb3" stroke="black" points="179.7,-84.8 24.3,-84.8 24.3,-48.8 179.7,-48.8 179.7,-84.8"/>
<text text-anchor="middle" x="102" y="-62.6" font-family="Times,serif" font-size="14.00">WorkSectionComponent</text>
</g>
<!-- WorkSectionComponent&#45;&gt;AppModule -->
<g id="edge14" class="edge">
<title>WorkSectionComponent&#45;&gt;AppModule</title>
<path fill="none" stroke="black" d="M102,-85.12C102,-108.46 102,-145.8 102,-145.8 102,-145.8 1221.32,-145.8 1221.32,-145.8"/>
<polygon fill="black" stroke="black" points="1221.32,-149.3 1231.32,-145.8 1221.32,-142.3 1221.32,-149.3"/>
</g>
<!-- AppComponent  -->
<g id="node17" class="node">
<title>AppComponent </title>
<polygon fill="#80b1d3" stroke="black" points="1327.44,-214.8 1218.56,-214.8 1218.56,-178.8 1327.44,-178.8 1327.44,-214.8"/>
<text text-anchor="middle" x="1273" y="-192.6" font-family="Times,serif" font-size="14.00">AppComponent </text>
</g>
<!-- AppModule&#45;&gt;AppComponent  -->
<g id="edge16" class="edge">
<title>AppModule&#45;&gt;AppComponent </title>
<path fill="none" stroke="black" stroke-dasharray="1,5" d="M1273,-149.91C1273,-149.91 1273,-168.79 1273,-168.79"/>
<polygon fill="black" stroke="black" points="1269.5,-168.79 1273,-178.79 1276.5,-168.79 1269.5,-168.79"/>
</g>
<!-- AppRoutingModule -->
<g id="node16" class="node">
<title>AppRoutingModule</title>
<polygon fill="#8dd3c7" stroke="black" points="2633.27,-84.8 2630.27,-88.8 2609.27,-88.8 2606.27,-84.8 2504.73,-84.8 2504.73,-48.8 2633.27,-48.8 2633.27,-84.8"/>
<text text-anchor="middle" x="2569" y="-62.6" font-family="Times,serif" font-size="14.00">AppRoutingModule</text>
</g>
<!-- AppRoutingModule&#45;&gt;AppModule -->
<g id="edge15" class="edge">
<title>AppRoutingModule&#45;&gt;AppModule</title>
<path fill="none" stroke="black" d="M2569,-85.12C2569,-108.46 2569,-145.8 2569,-145.8 2569,-145.8 1325.02,-145.8 1325.02,-145.8"/>
<polygon fill="black" stroke="black" points="1325.02,-142.3 1315.02,-145.8 1325.02,-149.3 1325.02,-142.3"/>
</g>
</g>
</svg>
