<?xml version="1.0" encoding="UTF-8" standalone="no"?>
<!DOCTYPE svg PUBLIC "-//W3C//DTD SVG 1.1//EN"
 "http://www.w3.org/Graphics/SVG/1.1/DTD/svg11.dtd">
<!-- Generated by graphviz version 2.47.3 (20210619.1520)
 -->
<!-- Title: dependencies Pages: 1 -->
<svg width="2665pt" height="247pt"
 viewBox="0.00 0.00 2665.00 246.80" xmlns="http://www.w3.org/2000/svg" xmlns:xlink="http://www.w3.org/1999/xlink">
<g id="graph0" class="graph" transform="scale(1 1) rotate(0) translate(4 242.8)">
<title>dependencies</title>
<polygon fill="white" stroke="transparent" points="-4,4 -4,-242.8 2661,-242.8 2661,4 -4,4"/>
<text text-anchor="middle" x="1328.5" y="-8.2" font-family="sans-serif" font-size="14.00">dependencies</text>
<g id="clust1" class="cluster">
<title>cluster_AppModule</title>
<polygon fill="none" stroke="black" stroke-dasharray="1,5" points="8,-32.8 8,-230.8 2649,-230.8 2649,-32.8 8,-32.8"/>
</g>
<g id="clust2" class="cluster">
<title>cluster_AppModule_declarations</title>
<polygon fill="none" stroke="black" points="168,-40.8 168,-92.8 2641,-92.8 2641,-40.8 168,-40.8"/>
</g>
<g id="clust17" class="cluster">
<title>cluster_AppModule_imports</title>
<polygon fill="none" stroke="black" points="16,-40.8 16,-92.8 160,-92.8 160,-40.8 16,-40.8"/>
</g>
<g id="clust19" class="cluster">
<title>cluster_AppModule_bootstrap</title>
<polygon fill="none" stroke="black" points="1186,-170.8 1186,-222.8 1310,-222.8 1310,-170.8 1186,-170.8"/>
</g>
<!-- AboutSectionComponent -->
<g id="node1" class="node">
<title>AboutSectionComponent</title>
<polygon fill="#ffffb3" stroke="black" points="2633.32,-84.8 2474.68,-84.8 2474.68,-48.8 2633.32,-48.8 2633.32,-84.8"/>
<text text-anchor="middle" x="2554" y="-62.6" font-family="Times,serif" font-size="14.00">AboutSectionComponent</text>
</g>
<!-- AppModule -->
<g id="node15" class="node">
<title>AppModule</title>
<polygon fill="#8dd3c7" stroke="black" points="1289.66,-149.8 1286.66,-153.8 1265.66,-153.8 1262.66,-149.8 1206.34,-149.8 1206.34,-113.8 1289.66,-113.8 1289.66,-149.8"/>
<text text-anchor="middle" x="1248" y="-127.6" font-family="Times,serif" font-size="14.00">AppModule</text>
</g>
<!-- AboutSectionComponent&#45;&gt;AppModule -->
<g id="edge1" class="edge">
<title>AboutSectionComponent&#45;&gt;AppModule</title>
<path fill="none" stroke="black" d="M2554,-85.12C2554,-108.46 2554,-145.8 2554,-145.8 2554,-145.8 1299.97,-145.8 1299.97,-145.8"/>
<polygon fill="black" stroke="black" points="1299.97,-142.3 1289.97,-145.8 1299.97,-149.3 1299.97,-142.3"/>
</g>
<!-- AppComponent -->
<g id="node2" class="node">
<title>AppComponent</title>
<polygon fill="#ffffb3" stroke="black" points="2456.94,-84.8 2351.06,-84.8 2351.06,-48.8 2456.94,-48.8 2456.94,-84.8"/>
<text text-anchor="middle" x="2404" y="-62.6" font-family="Times,serif" font-size="14.00">AppComponent</text>
</g>
<!-- AppComponent&#45;&gt;AppModule -->
<g id="edge2" class="edge">
<title>AppComponent&#45;&gt;AppModule</title>
<path fill="none" stroke="black" d="M2404,-85.09C2404,-107.01 2404,-140.8 2404,-140.8 2404,-140.8 1299.83,-140.8 1299.83,-140.8"/>
<polygon fill="black" stroke="black" points="1299.83,-137.3 1289.83,-140.8 1299.83,-144.3 1299.83,-137.3"/>
</g>
<!-- ContactSectionComponent -->
<g id="node3" class="node">
<title>ContactSectionComponent</title>
<polygon fill="#ffffb3" stroke="black" points="2333.37,-84.8 2166.63,-84.8 2166.63,-48.8 2333.37,-48.8 2333.37,-84.8"/>
<text text-anchor="middle" x="2250" y="-62.6" font-family="Times,serif" font-size="14.00">ContactSectionComponent</text>
</g>
<!-- ContactSectionComponent&#45;&gt;AppModule -->
<g id="edge3" class="edge">
<title>ContactSectionComponent&#45;&gt;AppModule</title>
<path fill="none" stroke="black" d="M2250,-84.83C2250,-105.57 2250,-136.8 2250,-136.8 2250,-136.8 1299.78,-136.8 1299.78,-136.8"/>
<polygon fill="black" stroke="black" points="1299.78,-133.3 1289.78,-136.8 1299.78,-140.3 1299.78,-133.3"/>
</g>
<!-- DialogDataProtectionComponent -->
<g id="node4" class="node">
<title>DialogDataProtectionComponent</title>
<polygon fill="#ffffb3" stroke="black" points="2148.91,-84.8 1945.09,-84.8 1945.09,-48.8 2148.91,-48.8 2148.91,-84.8"/>
<text text-anchor="middle" x="2047" y="-62.6" font-family="Times,serif" font-size="14.00">DialogDataProtectionComponent</text>
</g>
<!-- DialogDataProtectionComponent&#45;&gt;AppModule -->
<g id="edge4" class="edge">
<title>DialogDataProtectionComponent&#45;&gt;AppModule</title>
<path fill="none" stroke="black" d="M2047,-84.91C2047,-104.14 2047,-131.8 2047,-131.8 2047,-131.8 1299.83,-131.8 1299.83,-131.8"/>
<polygon fill="black" stroke="black" points="1299.83,-128.3 1289.83,-131.8 1299.83,-135.3 1299.83,-128.3"/>
</g>
<!-- DialogLegalNoticeComponent -->
<g id="node5" class="node">
<title>DialogLegalNoticeComponent</title>
<polygon fill="#ffffb3" stroke="black" points="1927.12,-84.8 1738.88,-84.8 1738.88,-48.8 1927.12,-48.8 1927.12,-84.8"/>
<text text-anchor="middle" x="1833" y="-62.6" font-family="Times,serif" font-size="14.00">DialogLegalNoticeComponent</text>
</g>
<!-- DialogLegalNoticeComponent&#45;&gt;AppModule -->
<g id="edge5" class="edge">
<title>DialogLegalNoticeComponent&#45;&gt;AppModule</title>
<path fill="none" stroke="black" d="M1833,-85.1C1833,-103.07 1833,-127.8 1833,-127.8 1833,-127.8 1300.07,-127.8 1300.07,-127.8"/>
<polygon fill="black" stroke="black" points="1300.07,-124.3 1290.07,-127.8 1300.07,-131.3 1300.07,-124.3"/>
</g>
<!-- DialogSubmitReportComponent -->
<g id="node6" class="node">
<title>DialogSubmitReportComponent</title>
<polygon fill="#ffffb3" stroke="black" points="1720.99,-84.8 1523.01,-84.8 1523.01,-48.8 1720.99,-48.8 1720.99,-84.8"/>
<text text-anchor="middle" x="1622" y="-62.6" font-family="Times,serif" font-size="14.00">DialogSubmitReportComponent</text>
</g>
<!-- DialogSubmitReportComponent&#45;&gt;AppModule -->
<g id="edge6" class="edge">
<title>DialogSubmitReportComponent&#45;&gt;AppModule</title>
<path fill="none" stroke="black" d="M1622,-84.83C1622,-101.2 1622,-122.8 1622,-122.8 1622,-122.8 1299.81,-122.8 1299.81,-122.8"/>
<polygon fill="black" stroke="black" points="1299.81,-119.3 1289.81,-122.8 1299.81,-126.3 1299.81,-119.3"/>
</g>
<!-- FooterSectionComponent -->
<g id="node7" class="node">
<title>FooterSectionComponent</title>
<polygon fill="#ffffb3" stroke="black" points="1504.87,-84.8 1345.13,-84.8 1345.13,-48.8 1504.87,-48.8 1504.87,-84.8"/>
<text text-anchor="middle" x="1425" y="-62.6" font-family="Times,serif" font-size="14.00">FooterSectionComponent</text>
</g>
<!-- FooterSectionComponent&#45;&gt;AppModule -->
<g id="edge7" class="edge">
<title>FooterSectionComponent&#45;&gt;AppModule</title>
<path fill="none" stroke="black" d="M1425,-84.99C1425,-99.98 1425,-118.8 1425,-118.8 1425,-118.8 1299.95,-118.8 1299.95,-118.8"/>
<polygon fill="black" stroke="black" points="1299.95,-115.3 1289.95,-118.8 1299.95,-122.3 1299.95,-115.3"/>
</g>
<!-- HomeContactComponent -->
<g id="node8" class="node">
<title>HomeContactComponent</title>
<polygon fill="#ffffb3" stroke="black" points="1327.59,-84.8 1168.41,-84.8 1168.41,-48.8 1327.59,-48.8 1327.59,-84.8"/>
<text text-anchor="middle" x="1248" y="-62.6" font-family="Times,serif" font-size="14.00">HomeContactComponent</text>
</g>
<!-- HomeContactComponent&#45;&gt;AppModule -->
<g id="edge8" class="edge">
<title>HomeContactComponent&#45;&gt;AppModule</title>
<path fill="none" stroke="black" d="M1248,-84.91C1248,-84.91 1248,-103.79 1248,-103.79"/>
<polygon fill="black" stroke="black" points="1244.5,-103.79 1248,-113.79 1251.5,-103.79 1244.5,-103.79"/>
</g>
<!-- HomeImageComponent -->
<g id="node9" class="node">
<title>HomeImageComponent</title>
<polygon fill="#ffffb3" stroke="black" points="1150.03,-84.8 999.97,-84.8 999.97,-48.8 1150.03,-48.8 1150.03,-84.8"/>
<text text-anchor="middle" x="1075" y="-62.6" font-family="Times,serif" font-size="14.00">HomeImageComponent</text>
</g>
<!-- HomeImageComponent&#45;&gt;AppModule -->
<g id="edge9" class="edge">
<title>HomeImageComponent&#45;&gt;AppModule</title>
<path fill="none" stroke="black" d="M1075,-84.99C1075,-99.98 1075,-118.8 1075,-118.8 1075,-118.8 1196.12,-118.8 1196.12,-118.8"/>
<polygon fill="black" stroke="black" points="1196.12,-122.3 1206.12,-118.8 1196.12,-115.3 1196.12,-122.3"/>
</g>
<!-- HomeSectionComponent -->
<g id="node10" class="node">
<title>HomeSectionComponent</title>
<polygon fill="#ffffb3" stroke="black" points="981.54,-84.8 824.46,-84.8 824.46,-48.8 981.54,-48.8 981.54,-84.8"/>
<text text-anchor="middle" x="903" y="-62.6" font-family="Times,serif" font-size="14.00">HomeSectionComponent</text>
</g>
<!-- HomeSectionComponent&#45;&gt;AppModule -->
<g id="edge10" class="edge">
<title>HomeSectionComponent&#45;&gt;AppModule</title>
<path fill="none" stroke="black" d="M903,-84.83C903,-101.2 903,-122.8 903,-122.8 903,-122.8 1196.04,-122.8 1196.04,-122.8"/>
<polygon fill="black" stroke="black" points="1196.04,-126.3 1206.04,-122.8 1196.04,-119.3 1196.04,-126.3"/>
</g>
<!-- HomeTextComponent -->
<g id="node11" class="node">
<title>HomeTextComponent</title>
<polygon fill="#ffffb3" stroke="black" points="806.7,-84.8 665.3,-84.8 665.3,-48.8 806.7,-48.8 806.7,-84.8"/>
<text text-anchor="middle" x="736" y="-62.6" font-family="Times,serif" font-size="14.00">HomeTextComponent</text>
</g>
<!-- HomeTextComponent&#45;&gt;AppModule -->
<g id="edge11" class="edge">
<title>HomeTextComponent&#45;&gt;AppModule</title>
<path fill="none" stroke="black" d="M736,-85.1C736,-103.07 736,-127.8 736,-127.8 736,-127.8 1196.1,-127.8 1196.1,-127.8"/>
<polygon fill="black" stroke="black" points="1196.1,-131.3 1206.1,-127.8 1196.1,-124.3 1196.1,-131.3"/>
</g>
<!-- NavBarComponent -->
<g id="node12" class="node">
<title>NavBarComponent</title>
<polygon fill="#ffffb3" stroke="black" points="647.37,-84.8 522.63,-84.8 522.63,-48.8 647.37,-48.8 647.37,-84.8"/>
<text text-anchor="middle" x="585" y="-62.6" font-family="Times,serif" font-size="14.00">NavBarComponent</text>
</g>
<!-- NavBarComponent&#45;&gt;AppModule -->
<g id="edge12" class="edge">
<title>NavBarComponent&#45;&gt;AppModule</title>
<path fill="none" stroke="black" d="M585,-84.91C585,-104.14 585,-131.8 585,-131.8 585,-131.8 1196.28,-131.8 1196.28,-131.8"/>
<polygon fill="black" stroke="black" points="1196.28,-135.3 1206.28,-131.8 1196.28,-128.3 1196.28,-135.3"/>
</g>
<!-- SkillsSectionComponent -->
<g id="node13" class="node">
<title>SkillsSectionComponent</title>
<polygon fill="#ffffb3" stroke="black" points="504.72,-84.8 349.28,-84.8 349.28,-48.8 504.72,-48.8 504.72,-84.8"/>
<text text-anchor="middle" x="427" y="-62.6" font-family="Times,serif" font-size="14.00">SkillsSectionComponent</text>
</g>
<!-- SkillsSectionComponent&#45;&gt;AppModule -->
<g id="edge13" class="edge">
<title>SkillsSectionComponent&#45;&gt;AppModule</title>
<path fill="none" stroke="black" d="M427,-84.83C427,-105.57 427,-136.8 427,-136.8 427,-136.8 1196.16,-136.8 1196.16,-136.8"/>
<polygon fill="black" stroke="black" points="1196.16,-140.3 1206.16,-136.8 1196.16,-133.3 1196.16,-140.3"/>
</g>
<!-- WorkSectionComponent -->
<g id="node14" class="node">
<title>WorkSectionComponent</title>
<polygon fill="#ffffb3" stroke="black" points="331.7,-84.8 176.3,-84.8 176.3,-48.8 331.7,-48.8 331.7,-84.8"/>
<text text-anchor="middle" x="254" y="-62.6" font-family="Times,serif" font-size="14.00">WorkSectionComponent</text>
</g>
<!-- WorkSectionComponent&#45;&gt;AppModule -->
<g id="edge14" class="edge">
<title>WorkSectionComponent&#45;&gt;AppModule</title>
<path fill="none" stroke="black" d="M254,-85.09C254,-107.01 254,-140.8 254,-140.8 254,-140.8 1196.24,-140.8 1196.24,-140.8"/>
<polygon fill="black" stroke="black" points="1196.24,-144.3 1206.24,-140.8 1196.24,-137.3 1196.24,-144.3"/>
</g>
<!-- AppComponent  -->
<g id="node17" class="node">
<title>AppComponent </title>
<polygon fill="#80b1d3" stroke="black" points="1302.44,-214.8 1193.56,-214.8 1193.56,-178.8 1302.44,-178.8 1302.44,-214.8"/>
<text text-anchor="middle" x="1248" y="-192.6" font-family="Times,serif" font-size="14.00">AppComponent </text>
</g>
<!-- AppModule&#45;&gt;AppComponent  -->
<g id="edge16" class="edge">
<title>AppModule&#45;&gt;AppComponent </title>
<path fill="none" stroke="black" stroke-dasharray="1,5" d="M1248,-149.91C1248,-149.91 1248,-168.79 1248,-168.79"/>
<polygon fill="black" stroke="black" points="1244.5,-168.79 1248,-178.79 1251.5,-168.79 1244.5,-168.79"/>
</g>
<!-- AppRoutingModule -->
<g id="node16" class="node">
<title>AppRoutingModule</title>
<polygon fill="#8dd3c7" stroke="black" points="152.27,-84.8 149.27,-88.8 128.27,-88.8 125.27,-84.8 23.73,-84.8 23.73,-48.8 152.27,-48.8 152.27,-84.8"/>
<text text-anchor="middle" x="88" y="-62.6" font-family="Times,serif" font-size="14.00">AppRoutingModule</text>
</g>
<!-- AppRoutingModule&#45;&gt;AppModule -->
<g id="edge15" class="edge">
<title>AppRoutingModule&#45;&gt;AppModule</title>
<path fill="none" stroke="black" d="M88,-85.12C88,-108.46 88,-145.8 88,-145.8 88,-145.8 1196.03,-145.8 1196.03,-145.8"/>
<polygon fill="black" stroke="black" points="1196.03,-149.3 1206.03,-145.8 1196.03,-142.3 1196.03,-149.3"/>
</g>
</g>
</svg>
